<svg xmlns="http://www.w3.org/2000/svg" viewBox="358 100 328 328">
  <rect x="358" y="100" width="328" height="328" rx="65" fill="#064e3b"/>
  <g fill="#faf7f0">
    <path d="M523.98,258.98 C525.54,262.29 527.46,265.49 528.58,268.95 C530.2,274 533.38,275.64 538.4,275.06 C540.69,274.8 543.08,275 545.37,275.36 C548.07,275.77 550.15,277.35 550.01,280.32 C549.87,283.19 547.81,284.76 545.1,285.17 C542.7,285.53 540.24,285.54 537.6,285.72 C537.77,289.41 538.53,291.78 542.44,291.54 C552.14,290.95 559.91,294.45 564.38,303.26 C569.08,312.48 568.12,321.62 562.33,330.22 C561.97,330.75 561.68,331.33 561.13,332.27 C565.57,333.06 568.71,331.26 571.56,328.66 C574.06,326.37 575.59,323.38 577.28,320.52 C583.7,309.62 593.34,304 605.85,302.96 C625.42,301.35 644.98,299.67 664.55,298 C668.63,297.65 672.21,298.57 672.77,303.19 C673.31,307.55 669.81,308.67 666.37,309.32 C650.51,312.33 634.63,315.25 618.78,318.31 C615.66,318.91 611.03,318.82 611.51,323.36 C612.07,328.55 616.87,326.87 620.02,326.54 C635.07,324.94 650.09,323.03 665.13,321.26 C666.78,321.06 668.45,320.8 670.1,320.89 C673.32,321.07 676.22,322.25 676.68,325.82 C677.16,329.58 674.85,331.67 671.32,332.46 C659.62,335.07 647.93,337.67 636.23,340.25 C630.86,341.44 625.47,342.49 620.13,343.77 C617.67,344.35 614.94,345.26 615.36,348.52 C615.79,351.83 618.63,351.94 621.19,351.74 C633.82,350.73 646.22,348.16 658.72,346.27 C663.66,345.52 668.55,344.5 673.5,343.89 C676.55,343.52 679.31,344.55 680.08,347.91 C680.88,351.45 678.9,353.84 675.69,354.73 C654.68,360.52 633.91,367.28 612.46,371.34 C601.45,373.43 591.45,370.24 583.28,362.86 C576.4,356.65 568.91,355.7 560.16,356.73 C523.49,361.05 486.98,366.87 449.92,367.59 C428.94,367.99 409.98,363.34 393.65,349.76 C370.71,330.68 362.45,296.21 374.12,266.25 C385.17,237.92 407.03,223.23 436.4,218.77 C458.93,215.35 481.54,212.4 504.06,208.83 C515.5,207.02 519.19,202.57 520.79,190.96 C521.34,187 522.02,183.06 522.51,179.1 C524.65,161.75 535.14,151.88 551.16,146.9 C555.96,145.41 560.88,144.6 565.84,143.97 C568.03,143.69 570.08,144.05 570.07,146.83 C570.02,161.44 568.5,175.7 556.59,186.12 C549.95,191.93 541.97,194.47 532.43,193.06 C533.23,185.13 538.08,179.22 541.61,171.3 C534.1,178.45 529.29,185.55 528.32,194.93 C527.85,199.39 527.35,203.87 526.47,208.26 C522.93,225.94 512.86,234.74 494.97,237.37 C474.73,240.34 454.46,243.38 434.45,247.55 C412.74,252.07 398.71,269.06 397.37,290.31 C395.89,313.63 411.07,332.8 434.69,337.5 C443.27,339.2 451.89,338.86 461.45,338.28 C456.97,333.24 453.43,328.43 452.62,322.13 C450.27,303.85 465.01,290.65 482.8,295.46 C486.96,296.58 489.1,295.5 490.23,291.32 C488.99,290.42 487.77,289.59 486.62,288.67 C480.8,284.03 480.82,275.71 487.11,270.47 C494.16,264.59 502.08,259.93 510.5,256.21 C515.31,254.08 519.59,255.3 523.72,258.81 M493.38,335.27 C493.37,337.87 495.42,336.99 496.63,336.98 C500.96,336.97 505.29,336.82 509.61,336.55 C515.81,336.17 522.01,335.65 528.94,335.13 C527.82,333.74 527.34,333.1 526.81,332.5 C517.16,321.73 517.47,307.84 527.6,297.54 C531.02,294.06 531.12,288.89 527.02,286.15 C523.35,283.7 521.11,280.43 518.98,276.86 C518.14,275.45 517.2,273.58 515.16,274.81 C511.98,276.74 508.44,278.24 505.93,281.28 C508.53,284 511.79,285.05 514.56,286.85 C519.82,290.27 521.06,292.97 519.51,299.03 C517.86,305.47 516.12,311.9 514.2,318.27 C512.48,324.01 510.44,325.15 504.57,323.5 C501.33,322.59 499.44,323.38 498.45,326.55 C497.48,329.62 495.56,332.15 493.38,335.27 M558.14,320.29 C560.37,310.51 557.15,303.43 549.2,300.72 C547.48,300.13 545.52,299.44 544.01,300.9 C542.53,302.33 543.78,304.03 544.29,305.54 C545.18,308.22 546.35,310.81 547.09,313.53 C547.74,315.92 546.74,317.85 544.34,318.69 C542.04,319.48 540.44,318.3 539.49,316.31 C538.57,314.36 537.92,312.29 537.05,310.31 C536.16,308.29 536.08,305.71 533.47,304.63 C530.21,306.92 528.54,310 528.22,313.86 C527.57,321.56 531.67,327.71 538.86,329.84 C546.63,332.14 553.58,328.91 558.14,320.29 M460.34,318.55 C461.37,328.11 467.78,334.1 476.63,333.77 C483.51,333.52 488.8,329.24 489.01,323.53 C485.8,322.6 482.47,323.2 479.2,323.11 C476.54,323.04 473.65,323.39 472.24,320.44 C470.83,317.52 472.95,315.44 474.41,313.25 C476.35,310.32 479.46,308.06 480.04,304.25 C470.36,300.66 462.78,305.97 460.34,318.55 M495.02,300.38 C494.65,305.32 498.38,308.74 499.92,312.98 C500.54,314.68 502.55,313.36 503.08,311.7 C503.79,309.48 504.24,307.18 504.94,304.96 C506.02,301.57 506.56,298.73 502.45,296.58 C498.23,294.38 497.29,297.79 495.02,300.38 M490.09,312.69 C489.67,311.66 489.43,310.48 488.02,310.2 C486.72,310.91 485.71,311.85 485.49,313.75 C487.13,313.9 488.74,315.15 490.09,312.69 Z"/>
    <path d="M531.34,229.41 C528.86,229.7 526.81,230.98 524.78,229.6 C524.33,228.38 524.93,227.53 525.51,226.73 C529.28,221.49 531.76,215.73 532.26,209.25 C532.52,205.85 534.3,204.35 537.58,203.86 C547.62,202.37 557.6,200.31 567.68,199.19 C584.77,197.29 600.33,201.1 610.43,216.06 C620.48,230.92 621.02,247.04 612.01,262.83 C596.42,272.62 587.96,279.2 577.02,282.31 C570.15,284.26 563.81,281.43 561.68,275.63 C559.3,269.15 561.79,263.15 568.25,259.8 C570.32,258.72 572.46,257.78 574.5,256.65 C582.14,252.4 585.25,244.68 582.99,235.73 C580.95,227.62 575.09,223.1 566.16,222.98 C552.22,222.79 538.8,226.44 525.22,228.8 C524.07,229 522.91,229.17 521.34,229.41Z"/>
    <path d="M482.04,167.08 C482.47,164.18 484.51,164.23 486.28,164.14 C494.06,163.75 501.52,164.96 508.32,169.02 C516,173.61 519.9,182.41 517.81,190.84 C514.02,189.39 512.21,185.32 508.08,183.78 C510.42,187.84 514.19,190.71 514.82,195.28 C505.99,199.13 494.24,194.69 488.14,185.25 C484.65,179.85 482.87,173.83 482.04,167.08Z"/>
    <path d="M524.01,259.01 C520.22,251.47 521,245.4 526.17,242.31 C530.19,239.9 535.79,240.44 539.12,243.55 C542.39,246.61 543.15,252.26 540.85,256.41 C538.7,260.31 534.07,262.25 529.3,261.09 C527.72,260.7 526.24,259.87 524.35,259.11Z"/>
  </g>
</svg>
