<?xml version="1.0" encoding="UTF-8"?>
<svg version="1.1" xmlns="http://www.w3.org/2000/svg" width="883" height="852">
<path d="M0 0 C0.77424316 0.30953613 1.54848633 0.61907227 2.34619141 0.93798828 C17.59859703 7.09841286 31.56402573 15.17125988 44 26 C45.42892578 27.21236328 45.42892578 27.21236328 46.88671875 28.44921875 C74.41447305 52.31872606 90.48234311 88.6182742 93.75 124.5625 C94.09821025 131.5349957 94.09648883 138.51999162 94.125 145.5 C94.12983398 146.61576416 94.13466797 147.73152832 94.13964844 148.88110352 C94.1126034 162.08584494 92.97816122 174.78707036 90.4375 187.75 C90.30916779 188.41076538 90.18083557 189.07153076 90.0486145 189.75231934 C86.3841197 208.44138264 81.0341812 226.30248274 72.80444336 243.49804688 C71.6801287 245.8638172 70.5880631 248.24238007 69.5 250.625 C68.92378906 251.79675781 68.92378906 251.79675781 68.3359375 252.9921875 C66.49266424 257.11565805 65.56392833 259.92327298 66.9765625 264.30859375 C67.62778943 265.88222096 68.30458422 267.44539523 69 269 C69.77413332 270.97556118 70.54194658 272.95360621 71.3046875 274.93359375 C71.72089355 275.98562988 72.13709961 277.03766602 72.56591797 278.12158203 C76.84743739 288.96671385 80.70316655 299.71458214 83.49853516 311.03515625 C83.96912897 312.87904088 84.50393282 314.7061995 85.04296875 316.53125 C98.10040853 362.55747451 94.18793795 412.22358384 71.1875 454.3125 C52.14985541 486.21542785 21.2457248 507.34574262 -14.5 516.375 C-67.68453477 528.56983777 -129.81005079 519.51222795 -178.75390625 495.69921875 C-182.61972938 493.9707192 -184.8623596 493.64475682 -189 495 C-191.61985393 496.05313511 -194.17817291 497.15380556 -196.75 498.3125 C-217.8928371 507.46653363 -239.85357118 515.50175649 -262.57226562 519.56494141 C-264.93467453 519.98829344 -267.28733516 520.44680578 -269.640625 520.91796875 C-280.00764737 522.96473171 -289.99624468 524.15475059 -300.5625 524.203125 C-301.55266113 524.20882507 -302.54282227 524.21452515 -303.56298828 524.22039795 C-305.65054271 524.22979506 -307.73811161 524.23636073 -309.82568359 524.24023438 C-312.96349127 524.24988768 -316.10062819 524.28094102 -319.23828125 524.3125 C-331.18215844 524.3757486 -342.34377799 523.62023115 -354 521 C-355.48040771 520.68579102 -355.48040771 520.68579102 -356.99072266 520.36523438 C-367.04145485 518.15710479 -376.70100191 515.47278152 -386 511 C-386.60763184 510.71785645 -387.21526367 510.43571289 -387.84130859 510.14501953 C-423.34949955 493.62815848 -450.54256777 464.75544992 -464 428 C-464.23702637 427.36545898 -464.47405273 426.73091797 -464.71826172 426.07714844 C-466.41677523 421.44351629 -467.79380538 416.78014303 -469 412 C-469.19754883 411.22060059 -469.39509766 410.44120117 -469.59863281 409.63818359 C-480.91006633 362.21717385 -470.98500604 310.87666858 -450.9921875 267.30859375 C-450.68748535 266.62087891 -450.3827832 265.93316406 -450.06884766 265.22460938 C-449 263 -449 263 -447.47412109 260.46289062 C-445.23072381 256.45574375 -443.70191928 253.62129074 -444.55322266 248.9909668 C-445.80845986 245.74255726 -447.26625682 242.71330335 -448.875 239.625 C-449.94015933 237.40299386 -451.00397963 235.1803453 -452.06640625 232.95703125 C-452.58219238 231.91369629 -453.09797852 230.87036133 -453.62939453 229.79541016 C-464.55900086 207.50399718 -471.07502925 179.46749204 -471.203125 154.62890625 C-471.20882507 153.74831039 -471.21452515 152.86771454 -471.22039795 151.96043396 C-471.22979704 150.10229676 -471.23636153 148.24414327 -471.24023438 146.38598633 C-471.24986541 143.60141256 -471.28090679 140.81760194 -471.3125 138.03320312 C-471.54736434 98.24838003 -456.36401086 61.81617194 -428.53076172 33.51220703 C-399.09783189 4.43603999 -357.36589679 -8.26159241 -316.82519531 -8.2487793 C-283.67688915 -7.9642884 -252.3552295 -0.65132097 -221.1875 10 C-219.97094727 10.41531982 -218.75439453 10.83063965 -217.50097656 11.25854492 C-210.69031695 13.61832989 -204.07137511 16.17536422 -197.5168457 19.1796875 C-193.19875843 20.5870765 -190.23312699 18.75215098 -186.24609375 16.9609375 C-185.31974121 16.5489209 -184.39338867 16.1369043 -183.43896484 15.71240234 C-181.95323975 15.05038818 -181.95323975 15.05038818 -180.4375 14.375 C-153.67985518 2.65732753 -126.04047064 -6.09669529 -97 -10 C-96.28835693 -10.10094971 -95.57671387 -10.20189941 -94.84350586 -10.3059082 C-63.17402027 -14.16466423 -29.61284966 -12.10564899 0 0 Z " fill="none" transform="translate(641,164)"/>
<path d="M0 0 C0.77424316 0.30953613 1.54848633 0.61907227 2.34619141 0.93798828 C17.59859703 7.09841286 31.56402573 15.17125988 44 26 C45.42892578 27.21236328 45.42892578 27.21236328 46.88671875 28.44921875 C74.41447305 52.31872606 90.48234311 88.6182742 93.75 124.5625 C94.09821025 131.5349957 94.09648883 138.51999162 94.125 145.5 C94.12983398 146.61576416 94.13466797 147.73152832 94.13964844 148.88110352 C94.1126034 162.08584494 92.97816122 174.78707036 90.4375 187.75 C90.30916779 188.41076538 90.18083557 189.07153076 90.0486145 189.75231934 C86.3841197 208.44138264 81.0341812 226.30248274 72.80444336 243.49804688 C71.6801287 245.8638172 70.5880631 248.24238007 69.5 250.625 C68.92378906 251.79675781 68.92378906 251.79675781 68.3359375 252.9921875 C66.49266424 257.11565805 65.56392833 259.92327298 66.9765625 264.30859375 C67.62778943 265.88222096 68.30458422 267.44539523 69 269 C69.77413332 270.97556118 70.54194658 272.95360621 71.3046875 274.93359375 C71.72089355 275.98562988 72.13709961 277.03766602 72.56591797 278.12158203 C76.84743739 288.96671385 80.70316655 299.71458214 83.49853516 311.03515625 C83.96912897 312.87904088 84.50393282 314.7061995 85.04296875 316.53125 C98.10040853 362.55747451 94.18793795 412.22358384 71.1875 454.3125 C52.14985541 486.21542785 21.2457248 507.34574262 -14.5 516.375 C-67.68453477 528.56983777 -129.81005079 519.51222795 -178.75390625 495.69921875 C-182.61972938 493.9707192 -184.8623596 493.64475682 -189 495 C-191.61985393 496.05313511 -194.17817291 497.15380556 -196.75 498.3125 C-217.8928371 507.46653363 -239.85357118 515.50175649 -262.57226562 519.56494141 C-264.93467453 519.98829344 -267.28733516 520.44680578 -269.640625 520.91796875 C-280.00764737 522.96473171 -289.99624468 524.15475059 -300.5625 524.203125 C-301.55266113 524.20882507 -302.54282227 524.21452515 -303.56298828 524.22039795 C-305.65054271 524.22979506 -307.73811161 524.23636073 -309.82568359 524.24023438 C-312.96349127 524.24988768 -316.10062819 524.28094102 -319.23828125 524.3125 C-331.18215844 524.3757486 -342.34377799 523.62023115 -354 521 C-355.48040771 520.68579102 -355.48040771 520.68579102 -356.99072266 520.36523438 C-367.04145485 518.15710479 -376.70100191 515.47278152 -386 511 C-386.60763184 510.71785645 -387.21526367 510.43571289 -387.84130859 510.14501953 C-423.34949955 493.62815848 -450.54256777 464.75544992 -464 428 C-464.23702637 427.36545898 -464.47405273 426.73091797 -464.71826172 426.07714844 C-466.41677523 421.44351629 -467.79380538 416.78014303 -469 412 C-469.19754883 411.22060059 -469.39509766 410.44120117 -469.59863281 409.63818359 C-480.91006633 362.21717385 -470.98500604 310.87666858 -450.9921875 267.30859375 C-450.68748535 266.62087891 -450.3827832 265.93316406 -450.06884766 265.22460938 C-449 263 -449 263 -447.47412109 260.46289062 C-445.23072381 256.45574375 -443.70191928 253.62129074 -444.55322266 248.9909668 C-445.80845986 245.74255726 -447.26625682 242.71330335 -448.875 239.625 C-449.94015933 237.40299386 -451.00397963 235.1803453 -452.06640625 232.95703125 C-452.58219238 231.91369629 -453.09797852 230.87036133 -453.62939453 229.79541016 C-464.55900086 207.50399718 -471.07502925 179.46749204 -471.203125 154.62890625 C-471.20882507 153.74831039 -471.21452515 152.86771454 -471.22039795 151.96043396 C-471.22979704 150.10229676 -471.23636153 148.24414327 -471.24023438 146.38598633 C-471.24986541 143.60141256 -471.28090679 140.81760194 -471.3125 138.03320312 C-471.54736434 98.24838003 -456.36401086 61.81617194 -428.53076172 33.51220703 C-399.09783189 4.43603999 -357.36589679 -8.26159241 -316.82519531 -8.2487793 C-283.67688915 -7.9642884 -252.3552295 -0.65132097 -221.1875 10 C-219.97094727 10.41531982 -218.75439453 10.83063965 -217.50097656 11.25854492 C-210.69031695 13.61832989 -204.07137511 16.17536422 -197.5168457 19.1796875 C-193.19875843 20.5870765 -190.23312699 18.75215098 -186.24609375 16.9609375 C-185.31974121 16.5489209 -184.39338867 16.1369043 -183.43896484 15.71240234 C-181.95323975 15.05038818 -181.95323975 15.05038818 -180.4375 14.375 C-153.67985518 2.65732753 -126.04047064 -6.09669529 -97 -10 C-96.28835693 -10.10094971 -95.57671387 -10.20189941 -94.84350586 -10.3059082 C-63.17402027 -14.16466423 -29.61284966 -12.10564899 0 0 Z M-107 30 C-107.76103027 30.15033691 -108.52206055 30.30067383 -109.30615234 30.45556641 C-146.91550806 38.14675552 -183.28662579 54.22851162 -216 74 C-216.90669434 74.54398438 -217.81338867 75.08796875 -218.74755859 75.6484375 C-241.19665149 89.16310074 -262.98897592 104.04913253 -283 121 C-284.06605475 121.89234718 -285.13248115 122.78425048 -286.19921875 123.67578125 C-292.06089038 128.58940458 -297.83608664 133.57941115 -303.48828125 138.734375 C-305.5373622 140.58269063 -307.61076114 142.39010314 -309.69970703 144.19262695 C-313.72472396 147.71292338 -317.54257806 151.39734097 -321.31640625 155.18359375 C-321.97656235 155.84279312 -322.63671844 156.50199249 -323.31687927 157.1811676 C-324.70035506 158.56396835 -326.08259083 159.94801076 -327.46362305 161.33325195 C-329.55731669 163.43230343 -331.65629874 165.5259594 -333.75585938 167.61914062 C-335.10969571 168.97363786 -336.46322175 170.32844531 -337.81640625 171.68359375 C-338.43326797 172.29843124 -339.0501297 172.91326874 -339.6856842 173.54673767 C-343.44612664 177.32712569 -347.01770643 181.22713777 -350.50004578 185.2653656 C-352.37058257 187.42856326 -354.30974569 189.52433096 -356.25 191.625 C-362.81212307 198.90136776 -368.79144622 206.66271305 -374.62890625 214.52734375 C-375.04011719 215.08115723 -375.45132813 215.6349707 -375.875 216.20556641 C-376.9962923 217.72290727 -378.10972695 219.24604575 -379.22265625 220.76953125 C-381 223 -381 223 -383 224 C-383.37125 222.824375 -383.7425 221.64875 -384.125 220.4375 C-385.32089148 216.79857308 -386.70885673 213.28666261 -388.20629883 209.76171875 C-392.07193617 200.57265526 -396.91771381 188.94980748 -394 179 C-392.03125 176.39453125 -392.03125 176.39453125 -389.5 173.8125 C-388.14068359 172.38744141 -388.14068359 172.38744141 -386.75390625 170.93359375 C-386.29129395 170.44874512 -385.82868164 169.96389648 -385.35205078 169.46435547 C-383.25924952 167.19772095 -381.35698412 164.78874282 -379.4375 162.375 C-375.97645253 158.08378947 -372.31967062 154.1714859 -368.3359375 150.36328125 C-366.38963211 148.39419303 -364.58953701 146.39286237 -362.78515625 144.296875 C-358.74404838 139.63909754 -354.43237901 135.28525304 -350.0625 130.9375 C-349.30259766 130.17373047 -348.54269531 129.40996094 -347.75976562 128.62304688 C-343.56521067 124.43565597 -339.28491336 120.41488327 -334.79321289 116.5480957 C-332.37494947 114.46038864 -330.03403531 112.29271691 -327.6875 110.125 C-323.25503526 106.08720678 -318.72257823 102.22692566 -314.0546875 98.46484375 C-311.8168842 96.65914825 -309.59518101 94.84020688 -307.3828125 93.00390625 C-285.88043859 75.21929577 -262.54650907 59.92384378 -239 45 C-254.65545314 29.34454686 -297.98680145 29.62480927 -318.625 29.5 C-330.49173195 29.58017546 -341.5658718 30.86450338 -353 34 C-353.7022168 34.18191895 -354.40443359 34.36383789 -355.12792969 34.55126953 C-370.17046013 38.4970247 -383.9068785 45.16727504 -396 55 C-396.82757813 55.65226562 -397.65515625 56.30453125 -398.5078125 56.9765625 C-412.78159129 68.92358111 -423.8855585 87.16795173 -429 105 C-429.37125 106.22332031 -429.7425 107.44664062 -430.125 108.70703125 C-436.42271626 131.87132351 -434.37129704 158.88064073 -429 182 C-428.81276367 182.80775879 -428.62552734 183.61551758 -428.43261719 184.44775391 C-416.25398767 235.12894184 -387.48465516 282.98108118 -353.51953125 322.078125 C-351.06963657 324.91924317 -348.71786655 327.82040522 -346.375 330.75 C-342.85948364 335.07534067 -339.10689808 339.00346094 -335.11328125 342.88671875 C-333.14860115 344.85139885 -331.35137118 346.87597731 -329.5625 349 C-326.22613948 352.88858571 -322.51193025 356.20329959 -318.66796875 359.58203125 C-315.8585926 362.12815693 -313.21282983 364.78917762 -310.5625 367.5 C-306.20942429 371.89581278 -301.68502555 375.86009218 -296.84765625 379.7109375 C-294.39111453 381.68560615 -291.99824997 383.71551516 -289.61791992 385.78076172 C-280.46523929 393.69076949 -270.74294631 400.83981474 -261 408 C-259.80455566 408.87954346 -259.80455566 408.87954346 -258.58496094 409.77685547 C-250.14120813 415.97328182 -241.63392671 422.03866392 -232.85620117 427.75512695 C-229.41521545 430.00400631 -226.16727671 432.37942021 -223 435 C-256.04847194 449.14874967 -256.04847194 449.14874967 -266 448 C-268.42285185 446.7160956 -270.47704413 445.4552728 -272.6875 443.875 C-273.3276001 443.43196533 -273.9677002 442.98893066 -274.62719727 442.5324707 C-276.76530921 441.04026004 -278.88394801 439.52331378 -281 438 C-282.13405273 437.18909912 -282.13405273 437.18909912 -283.29101562 436.36181641 C-309.52218291 417.53882791 -333.64181164 396.3952964 -356.5 373.625 C-357.33684326 372.79282959 -358.17368652 371.96065918 -359.03588867 371.10327148 C-363.89756365 366.22891175 -368.52395538 361.22858216 -373 356 C-374.0569656 354.79674493 -375.11553506 353.59489664 -376.17578125 352.39453125 C-383.11317259 344.49100839 -389.72311424 336.43625224 -396 328 C-396.44053711 327.41250977 -396.88107422 326.82501953 -397.33496094 326.21972656 C-403.02244059 318.62700178 -408.50966357 310.95483059 -413.56445312 302.92236328 C-415.96035912 299.20707634 -418.39842892 296.56436952 -422 294 C-437.15353926 326.14838738 -443.54865353 372.72051556 -431.74853516 406.92138672 C-431.50151855 407.6073291 -431.25450195 408.29327148 -431 409 C-430.75942871 409.69754395 -430.51885742 410.39508789 -430.27099609 411.11376953 C-420.62272013 438.64791724 -401.29680312 461.04824129 -375.19042969 474.05200195 C-366.6869695 478.13857971 -358.22680993 481.88365646 -349 484 C-347.8140625 484.29519531 -346.628125 484.59039063 -345.40625 484.89453125 C-322.60795554 489.94056124 -296.78904913 488.00133831 -274 484 C-272.53522613 483.77688452 -271.07038505 483.55420967 -269.60546875 483.33203125 C-243.9644713 479.03780759 -218.31826761 468.08234972 -195 457 C-194.0910498 456.57428711 -193.18209961 456.14857422 -192.24560547 455.70996094 C-158.22555797 439.68686689 -127.27069378 418.46653528 -98 395 C-97.35434082 394.4858252 -96.70868164 393.97165039 -96.04345703 393.44189453 C-88.06678671 387.08462006 -80.2838336 380.61336153 -72.84375 373.6328125 C-70.77117566 371.71397307 -68.68407466 369.87831805 -66.53515625 368.05078125 C-60.6960718 362.96312562 -55.28231336 357.43125801 -49.81811523 351.94848633 C-47.94170525 350.06671726 -46.06001031 348.19035262 -44.17773438 346.31445312 C-38.23895402 340.37926219 -32.40843681 334.42956458 -27 328 C-26.05144943 326.91624113 -25.10096985 325.83416715 -24.1484375 324.75390625 C-16.83910374 316.37081887 -10.02949663 307.66792539 -3.35546875 298.77294922 C-2.14949208 297.19553521 -0.89061479 295.65888465 0.375 294.12890625 C2.20224869 292.1814049 2.20224869 292.1814049 2 290 C4.91006811 291.45503405 5.01809176 293.28779876 6.09375 296.3203125 C6.48433594 297.4134375 6.87492187 298.5065625 7.27734375 299.6328125 C7.68082031 300.78523438 8.08429688 301.93765625 8.5 303.125 C8.90347656 304.25421875 9.30695313 305.3834375 9.72265625 306.546875 C16.42555289 325.4388675 16.42555289 325.4388675 15 333 C13.18121982 336.76791662 10.67803234 339.80275731 8 343 C7.58169922 343.51014648 7.16339844 344.02029297 6.73242188 344.54589844 C-4.08198702 357.71366123 -15.9241963 369.99369539 -27.9375 382.0625 C-28.96556763 383.0975769 -28.96556763 383.0975769 -30.0144043 384.15356445 C-33.93025776 388.05706956 -37.95425162 391.7738053 -42.14038086 395.38549805 C-44.75548564 397.65590476 -47.27834689 400.01451612 -49.8125 402.375 C-54.46251131 406.67071772 -59.24757808 410.73996318 -64.18359375 414.70703125 C-66.6390369 416.70612297 -69.03939935 418.7557854 -71.43017578 420.83129883 C-80.2214493 428.42624819 -89.57113958 435.22403642 -99 442 C-99.81952148 442.59248535 -100.63904297 443.1849707 -101.48339844 443.79541016 C-111.6506387 451.12728484 -121.96012822 457.99606806 -132.81811523 464.27001953 C-133.61419189 464.73263184 -134.41026855 465.19524414 -135.23046875 465.671875 C-135.93582764 466.0750293 -136.64118652 466.47818359 -137.36791992 466.89355469 C-139.16150548 467.91518968 -139.16150548 467.91518968 -140 470 C-128.19777436 474.26040403 -116.27856392 477.43613731 -104 480 C-103.04335449 480.20044922 -102.08670898 480.40089844 -101.10107422 480.60742188 C-62.71128585 488.36293468 -23.81034373 485.54539686 10 465 C13.61344499 462.57396284 16.82225512 459.96846532 20 457 C20.89847656 456.19175781 21.79695313 455.38351562 22.72265625 454.55078125 C38.29372685 439.87927731 46.95583543 420.52747423 52 400 C52.18691406 399.28424805 52.37382813 398.56849609 52.56640625 397.83105469 C54.41860374 389.92283291 54.39806185 381.95244052 54.375 373.875 C54.37412384 373.125672 54.37324768 372.37634399 54.37234497 371.60430908 C54.24040349 337.23834578 44.11617718 303.31872859 28.05957031 273.02636719 C26.95295419 270.9100276 25.89227708 268.77465152 24.8359375 266.6328125 C15.06622383 247.09130117 2.38091674 229.21954953 -11 212 C-11.90917551 210.81404836 -12.81803182 209.62785195 -13.7265625 208.44140625 C-20.48602163 199.67017436 -27.64464769 191.27534634 -35 183 C-35.87398437 182.01257813 -36.74796875 181.02515625 -37.6484375 180.0078125 C-44.60857761 172.31287754 -51.92555216 164.97075069 -59.25 157.625 C-59.76978424 157.10253693 -60.28956848 156.58007385 -60.82510376 156.04177856 C-66.70337803 150.14054727 -72.65352797 144.40165631 -79 139 C-80.15698428 137.97886515 -81.31196309 136.95545316 -82.46484375 135.9296875 C-91.03214932 128.3705164 -99.90682082 121.34210088 -109.04101562 114.48291016 C-110.80777419 113.14551091 -112.55659203 111.78953863 -114.296875 110.41796875 C-126.61831084 100.73907435 -139.61044287 91.87175775 -152.98803711 83.71459961 C-154.35855337 82.86084555 -155.685207 81.93729941 -157 81 C-157 80.34 -157 79.68 -157 79 C-148.48092646 75.30971008 -139.91508432 72.21696806 -131 69.625 C-130.11675049 69.36251465 -129.23350098 69.1000293 -128.32348633 68.82958984 C-116.90262806 65.59868202 -116.90262806 65.59868202 -112.015625 67.95800781 C-109.76956947 69.32123874 -107.63786007 70.78529118 -105.5 72.3125 C-104.71463867 72.85575928 -103.92927734 73.39901855 -103.12011719 73.95874023 C-100.73260498 75.6201111 -98.3641501 77.30559217 -96 79 C-95.31744141 79.48533203 -94.63488281 79.97066406 -93.93164062 80.47070312 C-76.76864362 92.71031283 -60.38465454 105.94037838 -44.94921875 120.296875 C-42.78877724 122.30095163 -40.57343022 124.22704639 -38.3359375 126.14453125 C-33.47697856 130.38066471 -28.92748257 134.92206254 -24.3815918 139.48803711 C-22.93974779 140.93524385 -21.49262884 142.37702026 -20.04492188 143.81835938 C-14.81702035 149.04211963 -9.7850697 154.36759797 -5 160 C-4.01543096 161.12987276 -3.02978628 162.25880927 -2.04296875 163.38671875 C13.50436583 181.30718046 27.30014647 200.64974606 41 220 C44.82560513 216.17439487 45.75593081 210.19018556 47.375 205.125 C47.67796997 204.18043945 47.67796997 204.18043945 47.98706055 203.21679688 C60.1664077 165.04286861 62.20329091 123.36453828 44.625 86.5625 C39.18815211 76.22533527 32.0957125 67.37681363 24 59 C23.360625 58.33484375 22.72125 57.6696875 22.0625 56.984375 C-1.33701166 34.49890677 -34.07605639 26.54523437 -65.5 26.6875 C-66.75390533 26.69023422 -66.75390533 26.69023422 -68.03314209 26.69302368 C-81.21805085 26.7413483 -94.04899578 27.33765471 -107 30 Z " fill="#323236" transform="translate(641,164)"/>
<path d="M0 0 C8.33042285 5.61791179 15.93045405 13.35109171 19.375 22.9375 C19.81779297 24.07832031 19.81779297 24.07832031 20.26953125 25.2421875 C24.58818753 38.21787624 23.47532791 52.40881994 18.375 64.9375 C17.95927734 66.03771484 17.95927734 66.03771484 17.53515625 67.16015625 C12.61709203 78.56009312 2.31161907 86.59305191 -8.875 91.25 C-15.55230692 93.83581984 -21.71815566 94.1475037 -28.8125 94.1875 C-29.70775391 94.208125 -30.60300781 94.22875 -31.52539062 94.25 C-44.06657938 94.32244008 -55.47564767 89.59229275 -64.625 80.9375 C-69.75416135 75.13879778 -73.59028623 69.0518473 -76.625 61.9375 C-76.94597656 61.215625 -77.26695312 60.49375 -77.59765625 59.75 C-81.6082976 49.005212 -81.35998263 34.71567458 -76.78125 24.25 C-76.3996875 23.486875 -76.018125 22.72375 -75.625 21.9375 C-75.2434375 21.133125 -74.861875 20.32875 -74.46875 19.5 C-73.55833043 17.62713689 -72.59774296 15.77876347 -71.625 13.9375 C-70.965 13.9375 -70.305 13.9375 -69.625 13.9375 C-69.356875 13.34710938 -69.08875 12.75671875 -68.8125 12.1484375 C-64.93782883 4.93441157 -57.69288097 0.58713497 -50.625 -3.0625 C-49.861875 -3.47886719 -49.09875 -3.89523437 -48.3125 -4.32421875 C-33.18615081 -11.23288785 -13.87319709 -8.00450762 0 0 Z " fill="#70DCBB" transform="translate(479.625,378.0625)"/>
<path d="M0 0 C0 0.66 0 1.32 0 2 C1.4540625 2.0309375 1.4540625 2.0309375 2.9375 2.0625 C7.60432834 2.68030823 10.49445123 5.42883252 13.984375 8.40625 C16.00713576 10.19146367 16.00713576 10.19146367 19 11 C19.495 12.485 19.495 12.485 20 14 C21.32848691 15.00642948 22.66150329 16.00692179 24 17 C24 17.66 24 18.32 24 19 C24.66 19 25.32 19 26 19 C26.99 21.97 26.99 21.97 28 25 C28.66 25 29.32 25 30 25 C37.46941111 37.44901851 38.33996866 54.01545203 34.94140625 67.77734375 C31.44603654 79.74282099 24.70726379 88.28446563 15 96 C14.43539062 96.46277344 13.87078125 96.92554688 13.2890625 97.40234375 C1.8613997 106.2279331 -13.01146085 107.7534186 -27.01953125 106.79296875 C-32.61576295 105.82560721 -37.5619583 103.58938137 -42.65234375 101.12109375 C-45.06425068 99.90999959 -45.06425068 99.90999959 -48 99 C-48 98.01 -48 97.02 -48 96 C-49.98 95.34 -51.96 94.68 -54 94 C-54 93.34 -54 92.68 -54 92 C-54.61875 91.773125 -55.2375 91.54625 -55.875 91.3125 C-58.6292098 89.61137042 -58.82150461 87.94623846 -60 85 C-60.9590625 84.5978125 -60.9590625 84.5978125 -61.9375 84.1875 C-64.92261589 82.46879691 -65.27604545 80.16068049 -66.2890625 76.97265625 C-67.00988886 74.72545002 -67.00988886 74.72545002 -69 72 C-74.54775425 60.19193591 -73.34360619 44.74467831 -69.16796875 32.76171875 C-64.48632778 21.69175164 -58.02388414 13.79798736 -48 7 C-47.01 7 -46.02 7 -45 7 C-45 6.34 -45 5.68 -45 5 C-34.03715004 -3.69467411 -12.8905963 -3.910258 0 0 Z M-53 15 C-53.61875 15.56332031 -54.2375 16.12664062 -54.875 16.70703125 C-56.31278502 18.07492394 -57.66676363 19.53002144 -59 21 C-59 21.66 -59 22.32 -59 23 C-59.66 23 -60.32 23 -61 23 C-61.96608323 24.85014053 -62.9224907 26.70533473 -63.875 28.5625 C-64.40867187 29.59503906 -64.94234375 30.62757813 -65.4921875 31.69140625 C-70.73216448 43.18949044 -70.89794717 57.16405361 -66.875 69.125 C-64.62405159 75.02185077 -61.91341734 80.06044238 -58 85 C-57.55011719 85.62261719 -57.10023438 86.24523437 -56.63671875 86.88671875 C-51.20183481 93.94441311 -43.17133166 97.85718013 -35 101 C-34.15308594 101.34933594 -33.30617188 101.69867188 -32.43359375 102.05859375 C-27.84738612 103.31601814 -23.54724084 103.34191094 -18.8125 103.3125 C-17.8743042 103.30686035 -16.9361084 103.3012207 -15.96948242 103.29541016 C-1.37692537 103.03960034 9.28516878 98.07009415 19.96484375 88.125 C30.80868644 76.80244641 33.51784035 62.83331975 33.28125 47.6640625 C32.89704197 38.23175533 29.75935631 29.46868399 24 22 C23.43539062 21.26136719 22.87078125 20.52273438 22.2890625 19.76171875 C14.29287733 10.05206533 3.21957696 3.07068084 -9.4375 1.74462891 C-26.37172186 0.52317431 -40.17605249 3.111132 -53 15 Z " fill="#B6F5E2" transform="translate(469,369)"/>
<path d="M0 0 C1.77329931 2.65994896 2.68826571 4.72116341 3.75 7.6875 C5.47602321 12.12215139 7.64178522 15.53930409 10.60546875 19.23828125 C12.29406859 21.37149842 13.66746355 23.63104631 15 26 C14.34 26 13.68 26 13 26 C12.67 25.34 12.34 24.68 12 24 C9.98330173 22.86649466 9.98330173 22.86649466 8 22 C8 21.34 8 20.68 8 20 C7.401875 19.835 6.80375 19.67 6.1875 19.5 C2.78642635 17.16783521 1.96057974 13.84231896 1 10 C0.50839319 6.67220005 0.1995102 3.35727515 0 0 Z " fill="#AFF4DF" transform="translate(401,434)"/>
<path d="M0 0 C4.33249203 4.33249203 3.99435458 12.54424379 4.0078125 18.3984375 C3.61026657 25.09311095 2.75932303 31.82122881 0 38 C-0.99 38.495 -0.99 38.495 -2 39 C-1.67 35.7 -1.34 32.4 -1 29 C-0.34 29 0.32 29 1 29 C1.17838928 14.46880763 1.17838928 14.46880763 0 0 Z " fill="#C1F6E6" transform="translate(502,405)"/>
<path d="M0 0 C0.66 0 1.32 0 2 0 C3.65864388 6.16067728 4.19324602 12.08814268 4.1875 18.4375 C4.18814453 19.13552734 4.18878906 19.83355469 4.18945312 20.55273438 C4.1564779 23.6314216 3.98042723 26.05871831 3 29 C2.34 29 1.68 29 1 29 C1.00523682 28.3702124 1.01047363 27.7404248 1.01586914 27.09155273 C1.03680138 24.20687885 1.0497115 21.32222102 1.0625 18.4375 C1.07087891 17.44685547 1.07925781 16.45621094 1.08789062 15.43554688 C1.10536914 10.17451301 0.92308398 5.18235335 0 0 Z " fill="#A9F1DB" transform="translate(500,405)"/>
<path d="M0 0 C0.66 0.66 1.32 1.32 2 2 C0.77023437 2.06058594 -0.45953125 2.12117188 -1.7265625 2.18359375 C-3.35938427 2.26805005 -4.99219627 2.35269547 -6.625 2.4375 C-7.43324219 2.47681641 -8.24148438 2.51613281 -9.07421875 2.55664062 C-13.45150865 2.78796082 -17.68547281 3.16920917 -22 4 C-22 3.34 -22 2.68 -22 2 C-14.78700289 -0.30815908 -7.54283084 -0.67311351 0 0 Z " fill="#AAF0DB" transform="translate(456,369)"/>
<path d="M0 0 C1.7866789 2.68001835 2.9322137 5.03128744 4.125 8 C4.47820312 8.86625 4.83140625 9.7325 5.1953125 10.625 C6 13 6 13 6 16 C2.91830948 13.94553966 2.277312 13.30460535 1 10 C0.5859375 7.421875 0.5859375 7.421875 0.375 4.75 C0.30023438 3.85796875 0.22546875 2.9659375 0.1484375 2.046875 C0.09945313 1.37140625 0.05046875 0.6959375 0 0 Z " fill="#A5EFD8" transform="translate(401,434)"/>
<path d="M0 0 C-3.33333333 1.66666667 -6.66666667 3.33333333 -10 5 C-10.99 4.34 -11.98 3.68 -13 3 C-11.5903653 2.29819469 -10.17192359 1.61406042 -8.75 0.9375 C-7.96109375 0.55464844 -7.1721875 0.17179688 -6.359375 -0.22265625 C-3.74006478 -1.08564091 -2.55144824 -0.93045933 0 0 Z " fill="#464649" transform="translate(472,176)"/>
<path d="M0 0 C0.33 0 0.66 0 1 0 C0.88490339 1.41750563 0.75746342 2.83401169 0.625 4.25 C0.55539062 5.03890625 0.48578125 5.8278125 0.4140625 6.640625 C-0.01507113 9.085877 -0.78600638 10.84836903 -2 13 C-2.66 13 -3.32 13 -4 13 C-3.52140759 11.39566191 -3.04210442 9.79153584 -2.5625 8.1875 C-2.29566406 7.29417969 -2.02882813 6.40085937 -1.75390625 5.48046875 C-1.19612127 3.64526945 -0.60655425 1.81966274 0 0 Z " fill="#A7F1DA" transform="translate(500,435)"/>
<path d="M0 0 C-4.95 2.475 -4.95 2.475 -10 5 C-10.66 4.34 -11.32 3.68 -12 3 C-10.75823305 2.29773859 -9.50614401 1.61370891 -8.25 0.9375 C-7.20585937 0.36322266 -7.20585937 0.36322266 -6.140625 -0.22265625 C-4 -1 -4 -1 0 0 Z " fill="#BDF7E5" transform="translate(478,469)"/>
<path d="M0 0 C0.99 0.33 1.98 0.66 3 1 C0.03 3.475 0.03 3.475 -3 6 C-3.66 5.67 -4.32 5.34 -5 5 C-3.35 3.35 -1.7 1.7 0 0 Z " fill="#3A3B3F" transform="translate(604,502)"/>
<path d="M0 0 C0.66 0.66 1.32 1.32 2 2 C0.35 3.65 -1.3 5.3 -3 7 C-3.99 6.67 -4.98 6.34 -6 6 C-4.02 4.02 -2.04 2.04 0 0 Z " fill="#414145" transform="translate(212,198)"/>
<path d="M0 0 C-0.66 0 -1.32 0 -2 0 C-2 0.66 -2 1.32 -2 2 C-4.31 2.33 -6.62 2.66 -9 3 C-7 0 -7 0 -5.0625 -0.75 C-3 -1 -3 -1 0 0 Z " fill="#C0F7E7" transform="translate(436,371)"/>
</svg>
