<?xml version="1.0" encoding="UTF-8"?>
<svg version="1.1" xmlns="http://www.w3.org/2000/svg" width="1395" height="458">
<defs>
<mask id="text-logo-cutout-mask" maskUnits="userSpaceOnUse" x="0" y="0" width="1395" height="458">
<rect x="0" y="0" width="1395" height="458" fill="#fff"/>
<path d="M0 0 C1.44789917 0.00845947 1.44789917 0.00845947 2.92504883 0.01708984 C21.28902516 0.32947075 33.34767671 7.53517671 46.12890625 20.31640625 C54.18499471 28.929287 58.125 38.58281988 58.125 50.3125 C19.185 50.3125 -19.755 50.3125 -59.875 50.3125 C-58.22665217 35.47736951 -51.34281556 23.08291325 -39.875 13.3125 C-27.55471283 3.583859 -15.61663454 -0.09591686 0 0 Z " fill="#000" transform="translate(1135.875,179.6875)"/>
</mask>
</defs>
<g mask="url(#text-logo-cutout-mask)">
<path d="M0 0 C8.0752263 6.50585909 14.92568515 13.62544567 20.578125 22.3515625 C20.578125 23.0115625 20.578125 23.6715625 20.578125 24.3515625 C18.45841469 25.75544633 16.34681177 27.03335535 14.140625 28.2890625 C7.30856049 32.26059441 0.68198112 36.48203138 -5.87280273 40.89624023 C-6.55415283 41.34684814 -7.23550293 41.79745605 -7.9375 42.26171875 C-8.53852539 42.66527588 -9.13955078 43.06883301 -9.75878906 43.48461914 C-11.421875 44.3515625 -11.421875 44.3515625 -14.421875 44.3515625 C-15.9296875 42.8828125 -15.9296875 42.8828125 -17.546875 40.8515625 C-27.58116583 29.02319888 -40.69493885 20.18142614 -56.421875 18.3515625 C-76.96009569 17.12287641 -94.26095977 18.77217167 -110.671875 32.4140625 C-122.78165125 43.99219004 -131.15129977 61.05131532 -131.72265625 77.83984375 C-131.92338035 97.51080506 -128.31169538 113.87386583 -115.44140625 129.30078125 C-102.30512889 142.64032789 -86.12194651 148.42839882 -67.796875 148.7265625 C-46.26979048 148.65882968 -26.62857963 139.97238638 -10.921875 125.2265625 C5.15688906 108.15716369 16.16382956 87.42515364 27.08984375 66.875 C47.45748126 28.62094597 68.57622615 -5.52337575 112.08984375 -18.82421875 C142.66121964 -26.04769054 175.45438876 -22.14310796 202.39453125 -5.71875 C207.08036092 -2.67152334 211.35642938 0.69610449 215.578125 4.3515625 C216.34769531 4.98835938 217.11726563 5.62515625 217.91015625 6.28125 C237.05713628 22.52519558 247.64123219 46.7407535 250.578125 71.3515625 C252.96777424 102.2602157 243.86054026 131.92625824 223.71484375 155.53515625 C210.4104875 169.69418207 191.21957114 179.46281239 172.578125 184.3515625 C171.51207031 184.64804687 170.44601562 184.94453125 169.34765625 185.25 C151.21758557 189.48617943 129.46220957 189.69596552 111.578125 184.3515625 C110.59199219 184.08472656 109.60585938 183.81789063 108.58984375 183.54296875 C86.9216685 177.08556553 68.37637794 163.79409318 54.44140625 146.140625 C53.29671784 143.76837482 53.7763274 142.8221211 54.578125 140.3515625 C56.11090351 137.80083185 57.68021219 135.32585722 59.328125 132.8515625 C60.32197797 131.34268721 61.3154505 129.83356128 62.30859375 128.32421875 C62.83630371 127.52516113 63.36401367 126.72610352 63.90771484 125.90283203 C65.67036583 123.2106802 67.4022977 120.50055071 69.12890625 117.78515625 C69.71381836 116.86992187 70.29873047 115.9546875 70.90136719 115.01171875 C72.05140913 113.2114285 73.19668056 111.40808098 74.33691406 109.6015625 C75.12340332 108.37759766 75.12340332 108.37759766 75.92578125 107.12890625 C76.38992432 106.39921631 76.85406738 105.66952637 77.33227539 104.91772461 C77.74340576 104.40089111 78.15453613 103.88405762 78.578125 103.3515625 C79.238125 103.3515625 79.898125 103.3515625 80.578125 103.3515625 C81.08601563 104.40214844 81.59390625 105.45273437 82.1171875 106.53515625 C91.02285544 124.77905935 100.28352229 137.8140052 119.8984375 145.52734375 C138.13680347 151.13710355 157.32667833 149.70596828 174.390625 141.1640625 C189.71545223 132.32643207 199.08836162 119.08306396 204.18359375 102.3203125 C208.97560461 84.16778443 206.55807616 64.51509455 197.83203125 48.05859375 C196.20148906 45.36765442 194.47671852 42.85840109 192.578125 40.3515625 C191.87236328 39.37509766 191.87236328 39.37509766 191.15234375 38.37890625 C181.88503524 26.5010883 166.11660703 19.71721826 151.578125 17.3515625 C133.74003536 15.76673716 116.77691509 19.07048704 102.390625 30.1640625 C100.76881541 31.53935703 99.1642623 32.93527515 97.578125 34.3515625 C96.80597656 35.02960938 96.03382813 35.70765625 95.23828125 36.40625 C84.76019462 46.18579752 78.93008259 59.37445073 72.27905273 71.8515625 C65.44653248 84.59477651 58.09041751 96.99788399 50.578125 109.3515625 C49.73024414 110.74737549 49.73024414 110.74737549 48.86523438 112.17138672 C39.71910572 127.14858712 29.69086774 140.63592306 17.578125 153.3515625 C16.87816406 154.104375 16.17820312 154.8571875 15.45703125 155.6328125 C8.04469501 163.38817436 -0.51184506 168.54127272 -9.921875 173.5390625 C-10.70473877 173.95526855 -11.48760254 174.37147461 -12.29418945 174.80029297 C-41.28076069 189.86209057 -75.72071751 191.77144732 -106.77734375 182.03125 C-119.96740538 177.575526 -132.06055566 170.6688405 -142.421875 161.3515625 C-142.9257373 160.90216309 -143.42959961 160.45276367 -143.94873047 159.98974609 C-163.62618165 142.19196733 -175.15470067 117.6913973 -176.59326172 91.19482422 C-177.14919018 77.3797053 -177.05620898 64.47495685 -172.421875 51.3515625 C-171.99777344 50.10761719 -171.57367188 48.86367187 -171.13671875 47.58203125 C-165.79584702 32.74161544 -157.60717729 20.39346347 -146.421875 9.3515625 C-145.62007812 8.55105469 -144.81828125 7.75054687 -143.9921875 6.92578125 C-105.66130263 -29.45714062 -41.56662238 -32.4696273 0 0 Z " fill="#323337" transform="translate(348.421875,164.6484375)"/>
<path d="M0 0 C0.63518555 0.16628906 1.27037109 0.33257812 1.92480469 0.50390625 C16.71602726 4.39443727 29.46389557 10.83816305 41 21 C41.83015625 21.68707031 42.6603125 22.37414062 43.515625 23.08203125 C57.78050888 35.22468547 67.22633824 51.96616667 72 70 C72.29777344 71.06992188 72.59554688 72.13984375 72.90234375 73.2421875 C76.28735254 87.74936804 75 100.42370482 75 116 C21.21 116 -32.58 116 -88 116 C-80.87359745 136.19147389 -73.73393379 150.29597691 -54.60546875 160.30859375 C-37.48999191 168.33784778 -13.19259589 170.77253614 4.87646484 164.33105469 C13.69557436 160.97721969 21.55945335 156.85869815 29 151 C29.969375 150.278125 30.93875 149.55625 31.9375 148.8125 C34.07753501 147.05666932 34.07753501 147.05666932 35.6875 144.75 C36.120625 144.1725 36.55375 143.595 37 143 C37.66 143 38.32 143 39 143 C40.26953125 144.29296875 40.26953125 144.29296875 41.8125 146.1875 C45.77548048 150.87102239 50.0860173 155.14431676 54.46801758 159.43041992 C60.80950018 165.67569083 60.80950018 165.67569083 62 168 C60.13216884 176.77314635 49.52308899 184.05356907 42.3125 188.75 C30.41041266 196.18695644 17.68456843 201.00084899 4 204 C3.01515625 204.22558594 2.0303125 204.45117188 1.015625 204.68359375 C-29.40218289 210.51769712 -63.68408039 203.78807628 -89.35107422 186.55151367 C-111.93036529 170.78081422 -124.1199986 149.1109075 -130.54418945 122.76855469 C-131.13229725 119.19643773 -131.18193369 115.66872408 -131.203125 112.05859375 C-131.21167511 110.91330956 -131.21167511 110.91330956 -131.22039795 109.74488831 C-131.22981939 108.13031383 -131.23637055 106.51572038 -131.24023438 104.90112305 C-131.24987303 102.46953231 -131.28089464 100.0388122 -131.3125 97.60742188 C-131.37355124 88.60844666 -130.73054229 80.65779568 -128 72 C-127.70738281 70.84886719 -127.41476562 69.69773437 -127.11328125 68.51171875 C-120.06653382 43.65904365 -102.35282161 22.87847571 -80.20458984 9.95214844 C-72.47937311 5.66622606 -64.51298957 2.3364749 -56 0 C-54.95457031 -0.2990625 -53.90914062 -0.598125 -52.83203125 -0.90625 C-35.95981604 -5.02421439 -16.69809658 -4.71654664 0 0 Z " fill="#323337" transform="translate(1163,146)"/>
<path d="M0 0 C14.52 0 29.04 0 44 0 C44 15.51 44 31.02 44 47 C63.14 47 82.28 47 102 47 C102 59.54 102 72.08 102 85 C82.53 85 63.06 85 43 85 C43.06178229 103.7491717 43.06178229 103.7491717 43.16015625 122.49804688 C43.2084194 130.15031125 43.25249131 137.80243224 43.27099609 145.45483398 C43.28619303 151.62769595 43.32069331 157.80018158 43.36830902 163.9728756 C43.38309137 166.32221891 43.3910392 168.67161596 43.39188385 171.02100563 C43.39426465 174.32405867 43.42143529 177.62608105 43.45410156 180.92895508 C43.4490712 181.88993607 43.44404083 182.85091705 43.43885803 183.84101868 C43.56061181 191.85217962 45.37847111 199.89467491 50.25 206.4375 C58.61040204 214.22787463 68.00636215 214.50599751 78.875 214.359375 C85.31443594 214.08083635 90.36782922 212.01234418 96 209 C97.66223802 208.32236663 99.32839625 207.6541889 101 207 C102.74420937 211.03145967 104.47088408 215.06985039 106.18188477 219.11547852 C106.76601649 220.48989658 107.35484285 221.86232945 107.94848633 223.23266602 C108.80239305 225.20602799 109.63900357 227.18598017 110.47265625 229.16796875 C110.98062744 230.35672607 111.48859863 231.5454834 112.01196289 232.77026367 C113.04178783 236.13659777 113.26895608 237.73939264 112 241 C109.5150534 242.65058496 107.30571057 243.89090164 104.625 245.125 C103.90199707 245.47119385 103.17899414 245.8173877 102.43408203 246.17407227 C96.78394804 248.80724792 91.13160287 250.80719623 85 252 C84.154375 252.18046875 83.30875 252.3609375 82.4375 252.546875 C59.90926181 255.5165064 39.4830642 252.59636907 21.15234375 238.8671875 C7.87401068 227.69175786 2.01689682 212.24841611 0.18904305 195.35214424 C-0.53459892 186.34832033 -0.23722043 177.25108289 -0.1953125 168.2265625 C-0.19157562 165.8476066 -0.18873184 163.46864916 -0.18673706 161.08969116 C-0.17915374 154.87227012 -0.15955156 148.65494468 -0.1373291 142.43756104 C-0.11675564 136.07557467 -0.1077109 129.71357264 -0.09765625 123.3515625 C-0.07630002 110.90099322 -0.04116188 98.45051957 0 86 C-10.56 86 -21.12 86 -32 86 C-32 73.13 -32 60.26 -32 47 C-21.44 47 -10.88 47 0 47 C0 31.49 0 15.98 0 0 Z " fill="#333437" transform="translate(807,99)"/>
<path d="M0 0 C0 13.86 0 27.72 0 42 C-5.56875 42.1546875 -5.56875 42.1546875 -11.25 42.3125 C-29.82229773 43.02093938 -43.89444869 47.11134017 -57 61 C-70.97417228 78.40009839 -71.60199867 98.65384248 -71.609375 119.96484375 C-71.62437993 122.45448367 -71.64111187 124.94411373 -71.65948486 127.43373108 C-71.70291053 133.93879694 -71.72310236 140.44372857 -71.73822021 146.94891357 C-71.75788108 153.60600252 -71.79984064 160.26292678 -71.83984375 166.91992188 C-71.91487732 179.94659441 -71.96326633 192.97316311 -72 206 C-86.52 206 -101.04 206 -116 206 C-116 139.01 -116 72.02 -116 3 C-102.14 3 -88.28 3 -74 3 C-73.67 12.24 -73.34 21.48 -73 31 C-70.36 27.7 -67.72 24.4 -65 21 C-52.83203173 9.99882321 -39.90005676 4.26865278 -24 1 C-16.23212582 -0.94196855 -8.00694143 0 0 0 Z " fill="#343539" transform="translate(752,143)"/>
<path d="M0 0 C14.19 0 28.38 0 43 0 C43 66.66 43 133.32 43 202 C28.81 202 14.62 202 0 202 C0 135.34 0 68.68 0 0 Z " fill="#323337" transform="translate(952,147)"/>
<path d="M0 0 C6.44707659 4.25665127 10.65780123 9.60642324 13 17 C14.33720909 25.39009949 12.39710515 32.05608616 7.64453125 38.97265625 C3.20074706 44.58397624 -1.84270199 47.86990031 -9 49 C-17.77017087 49.80460283 -24.73959833 49.26985218 -32 44 C-37.78280091 38.87309333 -41.30110587 33.31159541 -42.3125 25.625 C-42.69769937 17.92101256 -40.28029049 11.66475258 -36.25 5.1875 C-25.8844001 -4.89016657 -12.70328009 -7.00655547 0 0 Z " fill="#333438" transform="translate(988,70)"/>
</g>
</svg>
